<svg width="220" height="43" viewBox="0 0 220 43" fill="none" xmlns="http://www.w3.org/2000/svg">
<path d="M57.2615 25.24C57.4888 27.3646 59.4214 31.0066 65.0297 31.0066C69.9179 31.0066 72.2673 27.8957 72.2673 24.8606C72.2673 22.129 70.4105 19.8907 66.7348 19.1319L64.0823 18.5628C63.0592 18.3731 62.3771 17.8041 62.3771 16.8935C62.3771 15.8312 63.4381 15.0346 64.7644 15.0346C66.8864 15.0346 67.6822 16.4382 67.8338 17.5385L72.04 16.59C71.8126 14.5793 70.0316 11.2028 64.7265 11.2028C60.7098 11.2028 57.7541 13.9723 57.7541 17.3108C57.7541 19.9286 59.3835 22.0911 62.9834 22.8878L65.4464 23.4569C66.8864 23.7604 67.4548 24.4433 67.4548 25.2779C67.4548 26.2644 66.6591 27.137 64.9918 27.137C62.7939 27.137 61.695 25.7711 61.5813 24.2915L57.2615 25.24Z" fill="white"/>
<path d="M88.3731 30.438H93.1856C93.11 29.793 92.9962 28.5031 92.9962 27.0614V11.7722H87.9559V22.6226C87.9559 24.7851 86.6678 26.3026 84.4322 26.3026C82.0829 26.3026 81.0217 24.6333 81.0217 22.5467V11.7722H75.9819V23.5711C75.9819 27.6305 78.5584 30.9311 83.0677 30.9311C85.0381 30.9311 87.1988 30.1724 88.2218 28.4272C88.2218 29.186 88.2974 30.0585 88.3731 30.438Z" fill="white"/>
<path d="M103.414 37.649V28.6196C104.323 29.8715 106.217 30.8959 108.795 30.8959C114.062 30.8959 117.585 26.7226 117.585 21.0698C117.585 15.5308 114.441 11.3576 108.984 11.3576C106.18 11.3576 104.096 12.6095 103.262 14.0512V11.7749H98.374V37.649H103.414ZM112.621 21.1078C112.621 24.4464 110.575 26.3812 107.998 26.3812C105.422 26.3812 103.338 24.4084 103.338 21.1078C103.338 17.8071 105.422 15.8722 107.998 15.8722C110.575 15.8722 112.621 17.8071 112.621 21.1078Z" fill="white"/>
<path d="M120.441 25.3538C120.441 28.2751 122.866 30.9687 126.845 30.9687C129.611 30.9687 131.392 29.6788 132.339 28.1992C132.339 28.92 132.415 29.9444 132.529 30.4376H137.152C137.038 29.7926 136.925 28.4648 136.925 27.4784V18.2972C136.925 14.5413 134.727 11.2028 128.816 11.2028C123.814 11.2028 121.123 14.4275 120.82 17.3488L125.291 18.2972C125.443 16.6659 126.656 15.2622 128.853 15.2622C130.975 15.2622 131.999 16.3624 131.999 17.6902C131.999 18.3352 131.658 18.8664 130.597 19.0181L126.012 19.701C122.904 20.1563 120.441 22.0152 120.441 25.3538ZM127.906 27.2128C126.277 27.2128 125.481 26.1505 125.481 25.0503C125.481 23.6086 126.504 22.8878 127.793 22.6982L131.999 22.0532V22.8878C131.999 26.1885 130.028 27.2128 127.906 27.2128Z" fill="white"/>
<path d="M146.892 30.4389V28.1626C147.877 29.756 149.848 30.8942 152.425 30.8942C157.73 30.8942 161.216 26.683 161.216 21.0301C161.216 15.4911 158.071 11.2799 152.614 11.2799C149.848 11.2799 147.802 12.494 146.968 13.8218V2.97137H142.004V30.4389H146.892ZM156.176 21.068C156.176 24.4825 154.13 26.3794 151.553 26.3794C149.014 26.3794 146.892 24.4446 146.892 21.068C146.892 17.6535 149.014 15.7946 151.553 15.7946C154.13 15.7946 156.176 17.6535 156.176 21.068Z" fill="white"/>
<path d="M164.068 25.3538C164.068 28.2751 166.493 30.9687 170.472 30.9687C173.238 30.9687 175.019 29.6788 175.966 28.1992C175.966 28.92 176.042 29.9444 176.155 30.4376H180.779C180.665 29.7926 180.552 28.4648 180.552 27.4784V18.2972C180.552 14.5413 178.354 11.2028 172.442 11.2028C167.44 11.2028 164.75 14.4275 164.447 17.3488L168.918 18.2972C169.07 16.6659 170.282 15.2622 172.48 15.2622C174.602 15.2622 175.625 16.3624 175.625 17.6902C175.625 18.3352 175.284 18.8664 174.223 19.0181L169.638 19.701C166.531 20.1563 164.068 22.0152 164.068 25.3538ZM171.533 27.2128C169.903 27.2128 169.107 26.1505 169.107 25.0503C169.107 23.6086 170.13 22.8878 171.419 22.6982L175.625 22.0532V22.8878C175.625 26.1885 173.655 27.2128 171.533 27.2128Z" fill="white"/>
<path d="M184.039 25.24C184.266 27.3646 186.199 31.0066 191.807 31.0066C196.695 31.0066 199.044 27.8957 199.044 24.8606C199.044 22.129 197.188 19.8907 193.512 19.1319L190.859 18.5628C189.836 18.3731 189.155 17.8041 189.155 16.8935C189.155 15.8312 190.215 15.0346 191.542 15.0346C193.664 15.0346 194.459 16.4382 194.611 17.5385L198.817 16.59C198.59 14.5793 196.809 11.2028 191.504 11.2028C187.487 11.2028 184.532 13.9723 184.532 17.3108C184.532 19.9286 186.161 22.0911 189.761 22.8878L192.224 23.4569C193.664 23.7604 194.232 24.4433 194.232 25.2779C194.232 26.2644 193.436 27.137 191.769 27.137C189.571 27.137 188.472 25.7711 188.359 24.2915L184.039 25.24Z" fill="white"/>
<path d="M206.699 18.9801C206.813 17.2729 208.253 15.3001 210.868 15.3001C213.747 15.3001 214.961 17.1212 215.036 18.9801H206.699ZM215.529 23.8363C214.922 25.5055 213.634 26.6817 211.285 26.6817C208.783 26.6817 206.699 24.8985 206.586 22.4326H219.924C219.924 22.3566 220 21.5979 220 20.877C220 14.8828 216.552 11.2028 210.792 11.2028C206.018 11.2028 201.622 15.0725 201.622 21.0289C201.622 27.3266 206.131 31.0066 211.247 31.0066C215.832 31.0066 218.788 28.313 219.735 25.0882L215.529 23.8363Z" fill="white"/>
<path d="M24.1967 41.7508C23.1102 43.1168 20.9073 42.3683 20.8811 40.6243L20.4983 15.1158L37.6796 15.1158C40.7916 15.1158 42.5273 18.704 40.5921 21.1371L24.1967 41.7508Z" fill="url(#paint0_linear_14_177)"/>
<path d="M24.1967 41.7508C23.1102 43.1168 20.9073 42.3683 20.8811 40.6243L20.4983 15.1158L37.6796 15.1158C40.7916 15.1158 42.5273 18.704 40.5921 21.1371L24.1967 41.7508Z" fill="url(#paint1_linear_14_177)" fill-opacity="0.2"/>
<path d="M17.2088 0.70544C18.2953 -0.66057 20.4982 0.0879049 20.5244 1.83195L20.6922 27.3404L3.72597 27.3404C0.613893 27.3404 -1.12177 23.7522 0.813412 21.3191L17.2088 0.70544Z" fill="#3ECF8E"/>
<defs>
<linearGradient id="paint0_linear_14_177" x1="20.4983" y1="20.7717" x2="35.7606" y2="27.1836" gradientUnits="userSpaceOnUse">
<stop stop-color="#249361"/>
<stop offset="1" stop-color="#3ECF8E"/>
</linearGradient>
<linearGradient id="paint1_linear_14_177" x1="13.7284" y1="11.5183" x2="20.6738" y2="24.615" gradientUnits="userSpaceOnUse">
<stop/>
<stop offset="1" stop-opacity="0"/>
</linearGradient>
</defs>
</svg>
