<svg width="43" height="43" viewBox="-2 -2 46 46" fill="none" xmlns="http://www.w3.org/2000/svg">
<path d="M24.1967 41.7508C23.1102 43.1168 20.9073 42.3683 20.8811 40.6243L20.4983 15.1158L37.6796 15.1158C40.7916 15.1158 42.5273 18.704 40.5921 21.1371L24.1967 41.7508Z" fill="url(#paint0_linear_mark)"/>
<path d="M24.1967 41.7508C23.1102 43.1168 20.9073 42.3683 20.8811 40.6243L20.4983 15.1158L37.6796 15.1158C40.7916 15.1158 42.5273 18.704 40.5921 21.1371L24.1967 41.7508Z" fill="url(#paint1_linear_mark)" fill-opacity="0.2"/>
<path d="M17.2088 0.70544C18.2953 -0.66057 20.4982 0.0879049 20.5244 1.83195L20.6922 27.3404L3.72597 27.3404C0.613893 27.3404 -1.12177 23.7522 0.813412 21.3191L17.2088 0.70544Z" fill="#3ECF8E"/>
<defs>
<linearGradient id="paint0_linear_mark" x1="20.4983" y1="20.7717" x2="35.7606" y2="27.1836" gradientUnits="userSpaceOnUse">
<stop stop-color="#249361"/>
<stop offset="1" stop-color="#3ECF8E"/>
</linearGradient>
<linearGradient id="paint1_linear_mark" x1="13.7284" y1="11.5183" x2="20.6738" y2="24.615" gradientUnits="userSpaceOnUse">
<stop/>
<stop offset="1" stop-opacity="0"/>
</linearGradient>
</defs>
</svg>
